<?xml version="1.0" encoding="utf-8"?>
<!-- Generator: Adobe Illustrator 24.1.2, SVG Export Plug-In . SVG Version: 6.00 Build 0)  -->
<svg version="1.1" id="Layer_2" xmlns="http://www.w3.org/2000/svg" xmlns:xlink="http://www.w3.org/1999/xlink" x="0px" y="0px"
	 viewBox="0 0 27 27" style="enable-background:new 0 0 27 27;" xml:space="preserve">
<path d="M25,7.9C25,8,25,8,25,7.9c0,0.1,0.1,0.2,0.1,0.2C25,8.1,25,8,25,7.9z"/>
<path d="M1,19.9L1,19.9L1,19.9C1,19.9,1,19.9,1,19.9c-0.5,0.4-0.7,1-0.6,1.6c0.1,0.3,0.3,0.6,0.6,0.8c0,0,0,0,0.1,0c0,0,0,0,0,0
	c0.5,0.3,1,0.5,1.6,0.5c0.1,0,0.2,0,0.3,0c0.3,0,0.6-0.1,1-0.2c0,0,0,0,0,0c0.4,0.4,0.7,0.8,1.1,1.1c0,0,0.1,0,0.1,0
	c0,0,0.1,0,0.1,0.1c0,0,0,0,0,0.1c0,0,0,0-0.1,0c2.3,2,5.3,3,8.3,3c0,0,0.1,0,0.1,0c-0.5-0.3-1-0.7-1.4-1.1c-0.5-0.5-1-1-1.5-1.6
	c-0.1,0-0.1,0-0.2-0.1c0,0,0-0.1,0-0.2c-0.8-1.1-1.5-2.3-1.9-3.6c-0.4,0-0.8,0-1.2,0c-0.4,0-1.2,0-1.2,0c0.4-0.1,0.7-0.2,1.1-0.3
	C7.7,20.1,8,20,8.5,20c0-0.1,0-0.2,0-0.3c-0.4-1.3-0.6-2.7-0.6-4.1c-0.4,0-0.5-0.1-0.5-0.1c0.1,0,0.1-0.1,0.2-0.1c0.1,0,0.2,0,0.3,0
	c0-1.6,0.3-3.2,0.8-4.8c0,0,0,0,0,0c0,0,0,0,0,0l0.1,0l0,0c0.1-0.2,0.2-0.4,0.3-0.7C8.7,9.7,8.6,9.5,8.4,9.3c0.2,0,0.4,0.1,0.6,0.2
	c0.4-0.9,0.9-1.8,1.5-2.6c-0.1-0.1-0.1-0.1-0.2-0.2c-0.1-0.1-0.1-0.2-0.2-0.4c0,0,0.2,0.1,0.3,0.2c0.1,0,0.2,0.1,0.2,0.2
	c0.4-0.5,0.8-1,1.3-1.4l0,0l0,0l0,0l0,0C9.8,7.6,8.5,10.7,8.4,14c0.1-0.1,0.3-0.1,0.4,0c0-0.5,0.1-0.9,0.1-1.4c0.1,0,0.2,0,0.2,0.1
	c0.1,0.1,0.7,1.5,1.9,2c-0.4,0-0.8,0.2-1.1,0.4c-0.3,0.2-0.7,0.3-1.1,0.3c0-0.4-0.1-0.7-0.1-1.1c0,0,0,0,0,0c-0.1,0-0.1,0.1-0.2,0
	c-0.1,0-0.1-0.1-0.2-0.1c0,0.1,0,0.3,0,0.4c0,2.4,0.6,4.7,1.8,6.8c0,0,0,0,0,0c0,0,0,0,0,0c0.5,0.8,1,1.5,1.6,2.2
	c0-0.1,0-0.2,0.1-0.3c0.3,0.2,0.5,0.6,0.5,0.9c1,1,2.1,1.8,3.4,2.4c0,0,0.1,0,0.1,0c-0.1-0.3-0.3-0.1-0.4-0.3c0.1-0.2,0.5,0,0.4-0.5
	c0,0,0.1-0.1,0.2-0.1c0.1,0,0.1,0,0.2,0c0.1,0.3,0.1,0.6,0,0.8c0.2,0,0.4-0.1,0.7-0.2c0.3-0.1,0.5-0.2,0.8-0.2c0,0-0.1-0.1-0.1-0.1
	c-0.1,0-0.1-0.2-0.1-0.2c0.1-0.1,0.2-0.1,0.4,0c0,0.1,0,0.2,0,0.3c4.8-1.7,8.1-6,8.6-11c0-0.2,0-0.4,0-0.5c0,0-0.1,0-0.1,0
	c0,0,0,0,0,0c0,0,0-0.1,0.1-0.1c0,0,0.1,0,0.1,0c0-0.2,0-0.4,0-0.6c0-0.6,0-1.2-0.1-1.8c-0.2,0-0.2-0.1-0.3-0.7c0.1,0,0.1,0,0.2,0
	c-0.2-1-0.5-2-0.9-3c0,0,0,0.1,0,0.1l-0.2-0.1L25,8.6c-0.3-0.2,0-0.3,0.1-0.5c0,0,0,0-0.1,0c-0.1-0.1-0.1-0.2-0.1-0.3
	c0,0,0.1-0.1,0.1-0.1c0,0,0,0,0,0c-1.1-2-2.7-3.7-4.6-4.9c0,0,0,0,0,0c0,0.1,0,0.2,0.1,0.3c0.1,0.1,0.1,0.2,0.2,0.3c0,0,0,0,0,0
	c0.1,0,0.1,0.1,0.1,0.2c0,0,0,0,0,0.1c0.1,0.3,0.1,0.3,0.3,0.7c0.2,0.4,0.4,0.3,0.6,0.4c0.2,0.1-0.1,0.3-0.2,0.4s-0.3,0.1-0.4,0.3
	c-0.1,0.2-0.5,0.3-0.7,0.4c-0.2,0.1-0.2,0.2-0.2,0.4c0,0.2-0.1,0.5-0.2,0.7c-0.1,0.2-0.4,0.1-0.7,0.1c-0.3,0.1-0.3,0.4-0.4,0.7
	c-0.1,0.3,0.1,0.4,0.2,0.6c0.1,0.2,0.5,0,0.7-0.1c0.2-0.1,0.3-0.3,0.5-0.3c0.2,0,0.4,0,0.6,0.1c0.2,0.1,0.4-0.1,0.5-0.3
	c0.1-0.1,0.3-0.2,0.5-0.2c0.2,0,0.1,0.3,0.1,0.4s0.2,0.3,0.2,0.2C22.4,8,22.4,8,22.6,8c0.2,0,0.3,0,0.3-0.2c0.1-0.2-0.2-0.2-0.3-0.2
	c-0.1-0.1-0.2-0.1-0.1-0.3c0.1-0.2,0.4,0,0.7,0c0.2,0,0.5,0.1,0.6,0.3c0.2,0.2,0.3,0.4,0.2,0.5c-0.1,0.1-0.4,0.2-0.6,0.2
	c-0.2,0-0.5,0-0.7,0.1c0,0-0.1,0-0.1,0.1c0,0.1,0,0.1-0.1,0.2c0,0-0.1,0-0.1,0c0,0,0,0,0,0c-0.1,0-0.1,0.1-0.2,0.1
	c-0.2,0-0.4-0.1-0.6-0.2c-0.2-0.2-0.5-0.1-0.8-0.1c-0.4,0-0.7,0.1-1.1,0.2C19.4,8.7,19.2,8.8,19,9c-0.3,0.2-0.6,0.4-0.8,0.7
	c-0.3,0.3-0.6,0.6-0.9,0.9c-0.1,0.2-0.2,0.6-0.1,0.7c0.1,0.1,0.2,0.2,0.2,0.4c0,0.2,0,0.5-0.1,0.7c0,0.1,0,0.3,0.1,0.4
	c0.1,0.2,0.2,0.4,0.4,0.6c0.2,0.2,0.4,0.5,0.7,0.6c0.4,0.2,0.7,0.4,1.1,0.4c0.4,0.1,0.4-0.1,0.7-0.1c0.3-0.1,0.6-0.4,0.8-0.4
	c0.3,0,0.3,0.1,0.5,0.3c0.2,0.2,0.3,0.3,0.3,0.5c0,0.2,0.1,0.7,0.1,0.8c-0.1,0.2-0.1,0.4-0.2,0.6c0,0,0,0.1,0,0.1
	c0.1,0,0.2,0,0.3,0.1c0,0.1-0.1,0.1-0.2,0.1c0.1,0.1,0.2,0.3,0.2,0.4c0.1,0.2-0.1,0.4-0.1,0.5c-0.1,0.2-0.2,0.4-0.4,0.5
	c-0.2,0.2-0.1,0.7-0.1,1c0,0.3,0.1,0.6,0.3,0.9c0.1,0.4,0.1,0.8,0,1.2c-0.1,0.2-0.2,0.4-0.4,0.6c-0.2,0.2,0,0.5,0.1,0.6
	c0.1,0.2,0.3,0.2,0.6,0.1c0.2-0.1,0.4-0.2,0.5-0.3l0,0c-1.9,2-4.4,3.3-7.2,3.8c-2.2-1.3-4.1-3.2-5.2-5.5c0.3,0,0.7,0,1.1,0
	c0,0.2,0,0.4,0.1,0.7c0,0,0,0,0,0c0.1,0,0.1,0,0.2,0c0,0,0,0,0.1,0.1c0,0.1,0,0.1-0.1,0.1c0,0-0.1,0-0.1,0c0,0.4,0.2,0.7,0.5,1
	c0,0,0,0,0.1,0c0,0,0-0.1,0.1-0.1c0,0,0,0,0.1,0c0.1,0.1,0.1,0.2,0.1,0.3c0.5,0.3,1.1,0.5,1.4,0.2c0.3-0.3,0.3-1.3-0.3-1.6
	c-0.2-0.1-0.5-0.2-0.7-0.3c0,0,0,0,0,0c0,0-0.1,0-0.1,0.1c-0.1,0-0.2,0-0.1-0.1c0,0,0,0,0-0.1c-0.1,0-0.2,0-0.3-0.1
	c-0.1-0.1-0.1-0.1-0.2-0.2c0.3,0,0.7,0,1,0c0.5,0.1,1.6,1.4,3.3,1.4c0.1,0,0.2,0,0.4,0c0,0,0,0,0-0.1c0-0.1,0.1,0,0.1,0c0,0,0,0,0,0
	c0.1,0,0.2,0,0.3,0c0,0,0,0,0.1,0c0,0,0,0,0,0c0.5-0.1,0.9-0.4,1.1-0.7c0,0,0,0,0,0c0,0,0,0-0.1,0c0,0,0,0,0,0c0,0,0,0,0.1-0.1
	c0,0,0,0,0,0c0.2-0.2,0.2-0.5,0.2-0.8c0-1-1.3-1.5-2.4-1.6c0,0,0,0,0.1,0l-0.5,0.4c-0.1-0.1-0.2-0.2-0.3-0.3
	c-0.6,0.1-1.1,0.4-1.5,0.9c-0.2,0.2-0.5,0.4-0.8,0.6c-0.2,0-0.5,0-0.8,0c0.3-0.2,0.6-0.3,0.8-0.5c0.3-0.2,1.3-0.8,1.6-1.3
	c0.1-0.1,0.1-0.2,0.2-0.3c0.2-0.2,0.4-0.5,0.4-0.8c0.1-0.8-0.7-1.7-1.9-2.1c0,0,0,0,0,0c0.2,0,0.3-0.1,0.5-0.1c0-0.1,0-0.1,0.1-0.2
	c0,0,0,0,0.1,0c0,0,0.1,0.1,0.1,0.1c0.4-0.2,0.7-0.5,0.7-0.9c0-0.1,0-0.2,0-0.3c0,0.1-0.1,0.2-0.1,0.2L14,13.3
	c0.1-0.1,0.2-0.1,0.3,0c0,0,0,0,0.1,0.1c-0.1-0.3-0.3-0.6-0.5-0.8c0,0.1-0.1,0.2-0.2,0.2c-0.1,0-0.2,0-0.2-0.1c0,0,0,0,0,0
	c0-0.1,0-0.2,0.1-0.2c0,0,0,0,0.1,0c-0.2-0.2-0.5-0.3-0.8-0.4c1.1,0,2.1-0.6,2.1-1.5c0-0.8-0.6-1.3-1.8-1.5c-1.4-0.2-2.6,0.6-3,0.7
	c-0.1,0-0.3,0-0.4,0C10,8.8,10.4,8,10.9,7.2c0,0,0.1,0,0.1,0c0.1,0.1,0.1,0.2,0.2,0.4c0.2,0.3,0.7,0.8,2,0.9
	c1.2,0.1,2.2-0.4,2.3-1.3s-1.1-1.4-2.3-1.4c-1.1,0-1.8,0.9-1.9,0.9c0,0-0.1,0-0.1,0c0.3-0.5,0.7-0.9,1-1.3c0.3,0,0.6,0,0.9,0
	c0,0,0.1,0,0.2,0c0.2,0,0.3,0,0.5,0h0c0.5,0,0.9-0.1,1.4-0.1l0,0c0.2,0,0.4-0.1,0.6-0.1c0,0,0.1,0,0.1,0c0.1,0,0.3-0.1,0.4-0.1
	c0,0,0.1,0,0.1,0c0.1,0,0.2-0.1,0.3-0.1c0,0,0.1,0,0.1,0c0.1-0.1,0.3-0.1,0.4-0.2c0.1-0.1,0.2-0.1,0.3-0.2c0,0,0.1-0.1,0.1-0.1
	c0.1-0.1,0.1-0.1,0.2-0.2c0,0,0.1-0.1,0.1-0.1C17.8,4.1,17.9,4,18,3.9c0.1-0.1,0.1-0.2,0.2-0.3l0,0c-0.1,0.1-0.2,0.2-0.3,0.2
	c0-0.1,0-0.1,0-0.2c-0.1-0.4,0.3-0.5,0.3-0.9c0-0.3,0-0.6,0-0.9c0-0.1,0.1-0.1,0.2-0.1c0,0,0,0-0.1,0c0-0.1,0.1-0.1,0.2,0
	c0-0.1,0-0.1-0.1-0.2v0c0,0,0,0,0,0c0,0,0-0.1,0-0.1c-0.2-0.5-0.6-0.8-1.1-1c0,0.1,0,0.1-0.1,0.1c-0.1,0-0.1-0.1-0.1-0.2
	c-0.3-0.1-0.6-0.2-0.9-0.2c-0.2,0-0.5,0-0.7,0.1l0,0c0,0,0,0,0,0c0,0,0,0-0.1,0c0,0,0,0,0,0c-0.4,0.1-0.8,0.3-1.1,0.5
	c-0.1,0-0.1,0.1-0.2,0.1c-0.2,0-0.4,0-0.6,0c-1.7,0-3.3,0.3-4.9,1C6.1,3,3.9,4.9,2.4,7.4c0.1,0,0.1,0.2,0.1,0.3
	c0,0.1-0.1,0.2-0.1,0.3c0,0-0.1,0-0.1,0C2.3,7.9,2.2,7.8,2.2,7.7c-2,3.6-2.1,8-0.3,11.7C1.6,19.5,1.3,19.7,1,19.9z M11.6,25.7
	c0,0.1,0.1,0.2,0.1,0.2c0,0-0.1,0.1-0.1,0.1c0-0.1-0.1-0.2-0.1-0.2C11.5,25.8,11.6,25.7,11.6,25.7z M11.2,25.1
	C11.2,25.1,11.2,25.2,11.2,25.1c0,0.1,0,0.1,0,0.1C11.2,25.2,11.2,25.2,11.2,25.1C11.2,25.1,11.2,25.1,11.2,25.1z M7.7,16.4l0.1,0.2
	l-0.1,0.1C7.7,16.6,7.7,16.6,7.7,16.4C7.6,16.5,7.7,16.5,7.7,16.4z M7.5,16c0,0.1,0.1,0.2,0.1,0.2c0,0-0.1,0.1-0.1,0.1
	c0-0.1-0.1-0.2-0.1-0.2C7.4,16.1,7.4,16,7.5,16z M25.3,18.7c0,0,0-0.1-0.1-0.1c0,0,0,0,0.1-0.1C25.4,18.6,25.4,18.6,25.3,18.7
	C25.4,18.7,25.4,18.7,25.3,18.7z M25.4,15.9L25.4,15.9v-0.1C25.4,15.8,25.4,15.8,25.4,15.9C25.4,15.8,25.4,15.8,25.4,15.9L25.4,15.9
	z M26.1,16.9c0,0,0-0.1-0.1-0.1c0,0,0,0,0.1-0.1V16.9L26.1,16.9z M26.1,13.1C26.1,13.1,26.1,13.1,26.1,13.1
	c-0.2-0.1-0.2-0.3-0.1-0.4c0,0,0,0,0.1,0C26.2,12.8,26.2,13,26.1,13.1L26.1,13.1z M25.9,11.3c0.1-0.2,0.2-0.1,0.3,0c0,0,0,0.1,0,0.1
	c0,0-0.1,0-0.1,0C26,11.4,25.9,11.3,25.9,11.3L25.9,11.3z M26.1,12c-0.2,0.1-0.3,0.1-0.5,0c0-0.1,0-0.2,0-0.2l0,0c0,0,0,0,0,0l0,0
	c0,0,0.1,0,0.1,0C25.9,12,26,11.9,26.1,12L26.1,12z M25.5,10.3c0.1-0.1,0.2-0.2,0.2-0.2c0.2,0.1,0.1,0.2,0,0.3c0,0-0.1,0-0.1,0
	C25.5,10.4,25.5,10.3,25.5,10.3L25.5,10.3z M25.4,10.4c0,0,0.1,0,0.1,0c0,0,0,0.1,0,0.1c-0.1,0.1-0.1,0.1-0.2,0.2
	c0,0-0.1-0.1-0.1-0.1C25.3,10.6,25.3,10.5,25.4,10.4L25.4,10.4z M25.3,17.7L25.3,17.7v0.1C25.2,17.8,25.2,17.7,25.3,17.7
	C25.2,17.7,25.2,17.7,25.3,17.7L25.3,17.7z M21,3.8C21,3.8,21,3.8,21,3.8c0-0.1,0-0.1,0.1-0.1c0,0,0,0,0.1,0.1
	C21.1,3.8,21,3.8,21,3.8z M19,8.2C19,8.2,19,8.2,19,8.2C19,8.1,19.1,8.1,19,8.2C19.1,8.1,19.1,8.1,19,8.2C19.1,8.2,19.1,8.2,19,8.2z
	 M20.1,7.7L20.1,7.7C20,7.7,20.1,7.7,20.1,7.7C20.1,7.7,20.1,7.7,20.1,7.7L20.1,7.7z M22.5,5.3C22.5,5.3,22.5,5.3,22.5,5.3
	c0-0.1,0-0.1,0-0.1V5.3L22.5,5.3z M23,5.4c0.1-0.1,0.2-0.1,0.2,0c0,0,0,0,0,0C23.2,5.5,23.1,5.5,23,5.4C23,5.4,23,5.4,23,5.4L23,5.4
	z M23.5,6.5c0,0,0,0.1,0.1,0.1c0,0,0,0-0.1,0.1C23.5,6.7,23.5,6.6,23.5,6.5C23.5,6.6,23.5,6.5,23.5,6.5L23.5,6.5z M23.5,7.2
	C23.5,7.2,23.5,7.2,23.5,7.2c0-0.1,0-0.1,0-0.2l0.1,0.1L23.5,7.2z M17.6,12.7C17.6,12.7,17.6,12.6,17.6,12.7v-0.2
	c0,0,0.1,0.1,0.1,0.1C17.7,12.6,17.6,12.6,17.6,12.7z M19.1,12c0,0.1,0,0.1-0.1,0.2c0,0,0-0.1-0.1-0.1L19.1,12
	C19.1,12,19.1,12,19.1,12z M19,11.3L19,11.3C19,11.4,18.9,11.4,19,11.3C18.9,11.4,18.9,11.4,19,11.3L19,11.3z M18.4,13.1
	c0,0,0-0.1-0.1-0.1c0,0,0,0,0.1-0.1C18.4,12.9,18.4,13,18.4,13.1C18.4,13,18.4,13,18.4,13.1z M18.5,11.5c0,0,0-0.1-0.1-0.1
	c0,0,0,0,0.1-0.1C18.6,11.3,18.6,11.4,18.5,11.5C18.6,11.4,18.5,11.5,18.5,11.5z M18.7,12.5C18.7,12.5,18.6,12.5,18.7,12.5
	c-0.1-0.1,0-0.1,0-0.1c0.1,0,0.2,0,0.3,0c0,0,0,0,0,0.1c0,0,0,0,0,0c0,0-0.1,0-0.1,0C18.8,12.5,18.7,12.5,18.7,12.5z M19.1,13.2
	c-0.1,0.1-0.2,0.1-0.3,0c0,0,0,0,0,0c0,0,0,0,0-0.1C18.9,13,19,13,19.1,13.2C19.1,13.1,19.1,13.1,19.1,13.2
	C19.1,13.1,19.1,13.2,19.1,13.2L19.1,13.2z M19.2,13.9L19.2,13.9c0-0.1,0-0.1,0.1-0.2c0,0,0,0.1,0.1,0.1L19.2,13.9z M19.2,13.4
	C19.2,13.4,19.2,13.3,19.2,13.4c0-0.1,0-0.1,0.1-0.2c0,0,0,0.1,0.1,0.1L19.2,13.4z M19.6,8.7C19.6,8.7,19.6,8.7,19.6,8.7L19.6,8.7
	L19.6,8.7C19.5,8.7,19.6,8.7,19.6,8.7L19.6,8.7z M19.6,12.3c0,0-0.1,0-0.1-0.1c0,0,0-0.1,0.1-0.1C19.6,12.2,19.7,12.2,19.6,12.3
	L19.6,12.3z M20.5,8.5c0,0,0,0.1,0.1,0.1c0,0,0,0-0.1,0.1C20.5,8.6,20.5,8.6,20.5,8.5C20.4,8.5,20.5,8.5,20.5,8.5L20.5,8.5z
	 M20.2,9.2C20.2,9.2,20.2,9.2,20.2,9.2c0-0.1,0-0.1,0-0.1C20.2,9.1,20.3,9.2,20.2,9.2C20.3,9.2,20.2,9.2,20.2,9.2L20.2,9.2z
	 M20.5,12.4C20.5,12.4,20.4,12.3,20.5,12.4c0-0.1,0-0.1,0.1-0.2c0,0,0,0.1,0.1,0.1C20.6,12.3,20.5,12.4,20.5,12.4L20.5,12.4z
	 M21.2,12.7L21.2,12.7v-0.2c0,0,0.1,0,0.1,0.1C21.3,12.6,21.2,12.7,21.2,12.7L21.2,12.7z M21.5,9.4L21.5,9.4
	C21.5,9.4,21.6,9.4,21.5,9.4C21.5,9.4,21.5,9.4,21.5,9.4L21.5,9.4z M21.6,14.1C21.6,14.1,21.5,14.1,21.6,14.1c0-0.1,0-0.1,0-0.2
	l0.1,0.1L21.6,14.1z M21.9,13L21.9,13c0-0.1,0-0.1,0.1-0.1c0,0,0,0,0.1,0.1L21.9,13z M21.8,9.9C21.9,9.8,21.9,9.8,21.8,9.9
	c0.1,0,0.1,0,0.1,0C21.9,9.9,21.9,9.9,21.8,9.9C21.9,9.9,21.9,9.9,21.8,9.9z M21.9,12.6C21.9,12.6,21.9,12.6,21.9,12.6
	c0-0.1,0-0.1,0.1-0.2c0,0,0,0.1,0.1,0.1C22,12.6,22,12.6,21.9,12.6L21.9,12.6z M22.1,9.3c0,0-0.1,0-0.1,0c-0.1,0-0.1,0-0.1-0.1
	C21.9,9.2,22,9.2,22.1,9.3C22.1,9.3,22.1,9.3,22.1,9.3L22.1,9.3z M23,22C23,22,23,22,23,22L23,22L23,22C23.1,22,23.1,22,23,22z
	 M23.2,15c0,0,0-0.1-0.1-0.1c0,0,0,0,0.1-0.1V15L23.2,15z M23.4,14.3c0.1,0.1,0.1,0.2,0.1,0.3c0,0,0,0,0,0c0,0,0.1,0,0.1,0.1
	c-0.1,0.1-0.2,0.1-0.2,0c0,0,0,0,0,0c0,0,0,0,0.1,0C23.2,14.5,23.3,14.4,23.4,14.3C23.3,14.3,23.4,14.3,23.4,14.3L23.4,14.3z
	 M23.5,19C23.4,19,23.4,19,23.5,19L23.5,19L23.5,19C23.5,19,23.5,19,23.5,19z M23.4,18.7C23.4,18.7,23.4,18.7,23.4,18.7L23.4,18.7
	L23.4,18.7C23.5,18.7,23.5,18.7,23.4,18.7L23.4,18.7z M23.6,15.1c0,0.1-0.2,0.1-0.2,0c0-0.1,0-0.1,0.1-0.1
	C23.6,15.1,23.6,15.1,23.6,15.1C23.6,15.1,23.6,15.1,23.6,15.1L23.6,15.1z M23.6,13.4c0,0-0.1,0.1-0.1,0.1c-0.1,0-0.1-0.1-0.1-0.1
	c0,0,0,0,0,0c0-0.1-0.1-0.2,0.1-0.2C23.6,13.3,23.6,13.3,23.6,13.4C23.6,13.4,23.6,13.4,23.6,13.4L23.6,13.4z M23.4,13.2
	c-0.1,0-0.1,0-0.2,0c0,0-0.1-0.1-0.1-0.1c0,0,0.1-0.1,0.1-0.1c0.1,0,0.1,0,0.2,0C23.4,13.1,23.4,13.1,23.4,13.2
	C23.5,13.2,23.5,13.3,23.4,13.2L23.4,13.2z M23.5,12.1c0,0,0-0.1,0.1-0.1l0.1,0.1L23.5,12.1C23.5,12.2,23.5,12.1,23.5,12.1
	L23.5,12.1z M24.6,14.6C24.6,14.6,24.6,14.5,24.6,14.6c0-0.1,0.1-0.2,0.1-0.2c0,0,0,0.1,0,0.2C24.8,14.6,24.7,14.6,24.6,14.6
	L24.6,14.6z M25,17.3c0,0,0-0.1-0.1-0.1c0,0,0,0,0.1-0.1V17.3L25,17.3z M25,15.6L25,15.6c0,0.1,0,0.1-0.1,0.1c0,0,0,0-0.1-0.1
	L25,15.6z M24.9,12.4c0,0.2,0,0.4,0,0.6c-0.3,0.2-0.6,0.2-0.8,0.5c-0.4-0.4,0-0.7,0.2-1c-0.3-0.6-0.7-0.9-1-1.3
	c0.1-0.2,0.3-0.3,0.4-0.5c0.3,0.1,0.1,0.4,0.2,0.5c0.1,0.1,0.4,0.1,0.5,0.3C24.8,11.7,24.9,12.1,24.9,12.4L24.9,12.4z M24.1,10.8
	c0,0,0.1,0,0.1,0.1c0,0,0,0-0.1,0.1L24.1,10.8C24,10.8,24,10.8,24.1,10.8L24.1,10.8z M24,10.5L24,10.5h0.1
	C24.1,10.6,24.1,10.6,24,10.5C24.1,10.6,24,10.6,24,10.5L24,10.5z M24.3,10.4C24.3,10.4,24.3,10.4,24.3,10.4L24.3,10.4
	c0,0.1,0,0.2,0,0.2C24.1,10.5,24.2,10.5,24.3,10.4L24.3,10.4z M24.4,11c0.1-0.1,0.2-0.1,0.3,0c0,0,0,0,0,0c0,0,0,0,0,0.1
	C24.6,11.1,24.5,11.2,24.4,11C24.4,11.1,24.4,11.1,24.4,11C24.4,11,24.4,11,24.4,11L24.4,11z M24.8,10.5c0,0,0,0.1,0,0.1
	c0,0-0.1,0-0.1,0c-0.1-0.1-0.2-0.1-0.4-0.2l0.3-0.3C24.8,10.1,24.6,10.4,24.8,10.5z M24.6,9.2c0,0,0.1,0,0.1,0.1l-0.1,0.1L24.6,9.2
	C24.5,9.2,24.6,9.2,24.6,9.2z M23.9,7.5c0,0,0.1-0.1,0.1-0.1l0.2,0.1c0,0-0.1,0.1-0.1,0.1C24.1,7.6,24,7.5,23.9,7.5L23.9,7.5z
	 M24.2,8.4c0,0,0.1,0,0.1,0c0,0,0,0,0,0c0,0.1-0.2,0.1-0.2,0C24,8.4,24.1,8.4,24.2,8.4L24.2,8.4z M23.9,8.6L23.9,8.6v0.2
	c0,0-0.1,0-0.1-0.1C23.9,8.7,23.9,8.7,23.9,8.6L23.9,8.6z M24.3,9.2L24.3,9.2c0.1-0.1,0.1-0.1,0.2-0.1c0,0,0.1,0.1,0.1,0.1
	c-0.1,0-0.1,0.1-0.2,0.1c0,0,0,0.1,0,0.1c0,0-0.1,0.1-0.1,0.1c-0.1,0-0.3,0.1-0.4-0.1L24.3,9.2z M24,9.8c0-0.1,0.2-0.1,0.2-0.1
	c0.1,0.1,0.1,0.2,0.1,0.3c-0.2,0.1-0.4,0-0.7,0.1C23.7,9.8,24,10,24,9.8L24,9.8z M23.6,10.7c0,0-0.1,0-0.1-0.1c0,0,0-0.1,0-0.1
	c0,0,0.1,0,0.1,0C23.6,10.6,23.6,10.7,23.6,10.7C23.6,10.7,23.6,10.8,23.6,10.7L23.6,10.7z M23.5,8.5c0,0,0,0.1,0.1,0.1
	c0,0,0,0-0.1,0.1C23.5,8.6,23.5,8.6,23.5,8.5C23.5,8.5,23.5,8.5,23.5,8.5L23.5,8.5z M23.2,10.4c0.1,0,0.1,0,0.2,0c0,0,0,0,0.1,0.1
	c0,0.1,0,0.1-0.1,0.1c-0.1,0-0.1,0-0.2,0c0,0-0.1-0.1-0.1-0.1C23.2,10.5,23.2,10.4,23.2,10.4L23.2,10.4z M23.2,11.8
	C23.2,11.8,23.2,11.8,23.2,11.8l-0.1-0.1l0.1-0.1C23.2,11.7,23.2,11.7,23.2,11.8L23.2,11.8z M22.8,9.6c0.1,0,0.1,0.1,0.1,0.1
	c0,0,0,0.1-0.1,0.1c0,0,0,0-0.1,0C22.7,9.8,22.7,9.6,22.8,9.6L22.8,9.6z M22.9,11C22.9,11.1,22.9,11.1,22.9,11c-0.1,0-0.1,0-0.2,0
	l0.1-0.1L22.9,11z M22.7,13.9c0-0.4,0-0.7,0.1-1.1c0,0,0,0,0,0c0,0,0,0,0.1,0c0,0,0,0,0-0.1c0,0,0,0,0,0.1c0.1,0,0.2,0,0.3,0
	c-0.1-0.1,0-0.2,0-0.3c0,0,0,0,0.1,0c0.1,0.1,0.1,0.2,0,0.3c0,0,0,0,0,0c0,0,0,0-0.1,0c0,0,0.1,0.1,0.1,0.1c0,0.1-0.1,0-0.2,0.1
	c-0.1,0-0.2,0-0.2-0.1c0.1,0.6,0.1,1.1,0.7,1.1c-0.1,0.1-0.2,0.2-0.3,0.2l0,0c0,0,0,0,0,0c-0.1,0.1-0.2,0.1-0.2,0c0,0,0,0,0,0
	c0,0,0,0,0,0c0,0-0.1,0-0.1,0C22.8,14.2,22.7,14.2,22.7,13.9L22.7,13.9z M22.5,11.5c0.2,0.1,0.2,0.4,0.1,0.6c0,0-0.1,0.1-0.1,0.1
	C22.3,12,22.3,11.7,22.5,11.5C22.4,11.5,22.5,11.5,22.5,11.5z M22.6,16.5c0,0-0.1,0.1-0.1,0.1c-0.1,0-0.1-0.1-0.2-0.1
	c0,0,0.1-0.1,0.1-0.1L22.6,16.5z M22.2,13.7c0-0.1,0-0.1-0.1-0.2c0,0,0-0.1,0.1-0.1C22.2,13.5,22.2,13.5,22.2,13.7
	C22.2,13.6,22.2,13.7,22.2,13.7z M22.2,8.9L22.2,8.9C22.1,8.8,22.1,8.8,22.2,8.9C22.2,8.8,22.2,8.8,22.2,8.9L22.2,8.9z M22.3,18.2
	C22.3,18.2,22.3,18.2,22.3,18.2L22.3,18.2L22.3,18.2C22.3,18.2,22.3,18.2,22.3,18.2L22.3,18.2z M22.5,18.4
	C22.5,18.4,22.5,18.4,22.5,18.4L22.5,18.4L22.5,18.4C22.5,18.5,22.5,18.4,22.5,18.4L22.5,18.4z M22.6,19.8
	C22.6,19.8,22.7,19.8,22.6,19.8c0.1,0.1,0.2,0.2,0.1,0.3c0,0,0,0,0,0c0,0,0,0-0.1,0C22.5,20,22.5,19.9,22.6,19.8
	C22.6,19.8,22.6,19.8,22.6,19.8z M22.6,21L22.6,21C22.7,21,22.7,21,22.6,21C22.7,21.1,22.7,21.1,22.6,21L22.6,21z M21.3,23.9
	C21.3,23.9,21.3,23.8,21.3,23.9c0-0.1,0-0.1,0.1-0.2c0,0,0,0.1,0.1,0.1L21.3,23.9z M21.3,23.2c0,0,0.1-0.1,0.1-0.1
	c0,0,0.1,0,0.1,0.1C21.4,23.2,21.4,23.3,21.3,23.2C21.4,23.3,21.3,23.3,21.3,23.2C21.3,23.3,21.3,23.3,21.3,23.2L21.3,23.2z
	 M21.2,23.3C21.3,23.3,21.3,23.3,21.2,23.3C21.3,23.3,21.3,23.4,21.2,23.3c0,0.1,0,0.2,0,0.2C21.1,23.4,21.2,23.3,21.2,23.3
	L21.2,23.3z M17.3,25.6L17.3,25.6c0,0.1,0,0.1,0,0.1C17.2,25.7,17.2,25.6,17.3,25.6C17.2,25.6,17.2,25.6,17.3,25.6z M17.4,26
	c-0.1,0.1-0.2,0.1-0.3,0.1c0,0,0,0-0.1-0.1C17.1,25.9,17.2,25.9,17.4,26C17.3,26,17.4,26,17.4,26L17.4,26z M14.6,25.3L14.6,25.3
	c0,0.1,0,0.1-0.1,0.1c0,0,0,0-0.1-0.1L14.6,25.3z M11.7,22.7C11.7,22.7,11.7,22.8,11.7,22.7l-0.1,0.2c0,0-0.1-0.1-0.1-0.1
	C11.6,22.8,11.6,22.7,11.7,22.7z M10.4,21.4C10.5,21.4,10.5,21.4,10.4,21.4C10.5,21.4,10.5,21.4,10.4,21.4c0.1,0.1,0.1,0.1,0.2,0.1
	c0,0,0,0,0,0c0,0,0,0,0,0c0,0.1,0,0.2-0.1,0.1C10.3,21.7,10.3,21.5,10.4,21.4z M12.3,21.5l0.1,0.2c0,0-0.1,0.1-0.1,0.1
	c0-0.1-0.1-0.2-0.1-0.2C12.2,21.6,12.2,21.6,12.3,21.5z M17.8,20.8C17.8,20.8,17.8,20.8,17.8,20.8C17.8,20.8,17.8,20.8,17.8,20.8
	C17.8,20.8,17.8,20.9,17.8,20.8C17.7,20.8,17.7,20.8,17.8,20.8z M16.4,21L16.4,21v0.1C16.3,21.1,16.3,21.1,16.4,21
	C16.3,21,16.3,21,16.4,21z M16,18.6c0-0.1,0.2-0.1,0.3,0c0,0,0,0.1,0,0.1c0,0-0.1,0-0.1,0.1C16,18.7,15.9,18.7,16,18.6z M16,20.3
	C16,20.3,16.1,20.3,16,20.3c0,0.1,0,0.1,0,0.2L16,20.4L16,20.3z M15.8,20.5L15.8,20.5v0.1C15.8,20.6,15.8,20.6,15.8,20.5
	C15.8,20.6,15.8,20.6,15.8,20.5z M15.7,19.4L15.7,19.4c0,0.1,0,0.1-0.1,0.1c0,0,0,0-0.1-0.1L15.7,19.4z M15.6,20.1
	C15.6,20.1,15.6,20.1,15.6,20.1c0,0.1,0,0.1,0,0.1V20.1L15.6,20.1z M14.5,20.3C14.5,20.3,14.5,20.3,14.5,20.3L14.5,20.3L14.5,20.3
	C14.6,20.3,14.6,20.3,14.5,20.3z M15.1,21C15.1,21,15.1,21,15.1,21c0-0.1,0-0.1,0-0.2l0.1,0.1L15.1,21z M15.1,19.9
	C15.1,20,15.2,20,15.1,19.9c0,0.1,0,0.1,0,0.2l-0.1-0.1L15.1,19.9z M14.9,19.9L14.9,19.9V20C14.9,20,14.9,19.9,14.9,19.9
	C14.9,19.9,14.9,19.9,14.9,19.9L14.9,19.9z M14.1,19.2c0.2,0,0.4,0,0.7,0c-0.1,0.1-0.3,0.2-0.4,0.2c0,0,0,0,0,0.1c0,0,0,0,0,0l0-0.1
	l0,0c-0.1,0-0.3,0-0.5,0C13.9,19.2,14,19.2,14.1,19.2L14.1,19.2z M13.3,19.5c0.1-0.1,0.2-0.1,0.3,0c0,0,0,0,0,0c0,0,0,0,0,0.1
	C13.5,19.6,13.4,19.6,13.3,19.5C13.3,19.5,13.3,19.5,13.3,19.5C13.3,19.5,13.3,19.5,13.3,19.5L13.3,19.5z M12.9,19.9
	c0,0,0.1-0.1,0.1-0.1c0,0,0.1,0,0.1,0.1C13,19.9,13,19.9,12.9,19.9C12.9,20,12.9,20,12.9,19.9C12.9,19.9,12.9,19.9,12.9,19.9
	L12.9,19.9z M12.8,20C12.8,19.9,12.9,19.9,12.8,20C12.9,20,12.9,20,12.8,20c0,0.1,0,0.2,0,0.2C12.7,20,12.8,20,12.8,20L12.8,20z
	 M13.3,16.8c0,0,0,0.1,0.1,0.1c0,0,0,0-0.1,0.1C13.3,16.9,13.3,16.9,13.3,16.8C13.3,16.8,13.3,16.8,13.3,16.8L13.3,16.8z M13.9,13.9
	C13.9,14,13.9,14,13.9,13.9c0,0.1,0,0.1,0,0.2l-0.1-0.1L13.9,13.9z M13.4,13C13.4,13,13.5,12.9,13.4,13c0.1,0,0.2,0,0.2,0
	c0,0.1,0,0.1,0,0.2c0,0.1,0,0.1,0,0.2c0,0,0,0.1-0.1,0.1c0,0-0.1,0-0.1-0.1C13.4,13.2,13.4,13.1,13.4,13z M14.7,10.7
	c-0.1,0.1-0.2,0.1-0.3,0.1c0,0,0,0-0.1-0.1C14.4,10.6,14.5,10.6,14.7,10.7C14.6,10.6,14.7,10.7,14.7,10.7L14.7,10.7z M9.4,9.7
	L9.4,9.7v0.2c0,0-0.1,0-0.1-0.1C9.4,9.8,9.4,9.7,9.4,9.7z M9.9,13.2c-0.1-0.1-0.1-0.2-0.1-0.3c0,0,0,0,0.1-0.1
	C10,12.9,10.1,13.1,9.9,13.2C10,13.2,10,13.2,9.9,13.2z M10.4,13.9L10.4,13.9v-0.1C10.4,13.8,10.5,13.8,10.4,13.9
	C10.5,13.9,10.4,13.9,10.4,13.9z M10.8,13c0.1-0.2,0.3-0.2,0.5-0.1c0,0,0,0,0.1,0c0.2,0.2,0.2,0.4,0,0.6C11.1,13.4,11,13.2,10.8,13z
	 M11.1,12.5c0,0,0-0.1,0.1-0.1l0.1,0.1L11.1,12.5C11.2,12.5,11.1,12.5,11.1,12.5z M11.4,16.6c0,0-0.1,0.1-0.1,0.1
	c0-0.1-0.1-0.2-0.1-0.2c0,0,0.1-0.1,0.1-0.1C11.4,16.4,11.4,16.5,11.4,16.6L11.4,16.6z M11,15.7L11,15.7c0,0.1,0,0.1-0.1,0.1
	c0,0,0,0-0.1-0.1L11,15.7z M10.1,15.9c0,0,0.1,0.1,0.1,0.1c0,0-0.1,0.1-0.1,0.1C10.1,16,10.1,16,10.1,15.9
	C10,15.9,10,15.9,10.1,15.9C10,15.9,10.1,15.9,10.1,15.9L10.1,15.9z M10,15.8C10,15.8,10,15.9,10,15.8C10,15.9,10,15.9,10,15.8
	c-0.1,0-0.2,0-0.2,0C9.9,15.7,10,15.8,10,15.8L10,15.8z M9.6,19.9C9.6,19.9,9.5,19.9,9.6,19.9c-0.1-0.1-0.2-0.2-0.3-0.4
	c0,0,0-0.1,0.1-0.1c0,0,0.1,0,0.1,0c0.1,0.1,0.1,0.2,0.2,0.4C9.7,19.8,9.6,19.9,9.6,19.9z M9.8,20.1C9.8,20.1,9.7,20,9.8,20.1
	c0-0.1,0-0.1,0-0.1V20.1L9.8,20.1z M11.9,21.5l0.1,0.1l-0.1,0.1C11.9,21.7,11.9,21.6,11.9,21.5C11.8,21.6,11.9,21.6,11.9,21.5z
	 M11.7,21.2c0,0-0.1,0-0.1-0.1c0,0,0-0.1,0-0.1c0,0,0.1,0,0.1,0C11.7,21,11.8,21.1,11.7,21.2C11.8,21.1,11.7,21.2,11.7,21.2
	L11.7,21.2z M11.8,20.4c0,0,0,0.1-0.1,0.1l-0.1-0.1L11.8,20.4C11.7,20.3,11.8,20.3,11.8,20.4L11.8,20.4z M11.7,19.3
	C11.7,19.3,11.7,19.2,11.7,19.3C11.6,19.2,11.6,19.2,11.7,19.3c0.1-0.1,0.1-0.1,0.2-0.1c0,0,0,0,0,0C11.9,19.3,11.8,19.3,11.7,19.3
	L11.7,19.3z M11.9,18.4c-0.1-0.1-0.2-0.2-0.2-0.4c-0.1,0.3-0.3,0.6-0.3,0.9c0,0,0,0,0.1,0c0.1,0.1,0.2,0.1,0.1,0.2
	c-0.1,0-0.2,0-0.2,0c0,0.2-0.1,0.4-0.1,0.7c-0.1,0-0.2,0-0.2,0c-0.2,0-0.7,0-1,0c-0.6-1.3-1-2.7-1.2-4.2c0.1,0,0.3,0.1,0.4,0.1
	c0.4,0.2,0.6,1.6,2.5,2.2c0-0.1,0.1-0.2,0.2-0.3C12.1,17.9,12.2,18.1,11.9,18.4C12,18.4,12,18.4,11.9,18.4L11.9,18.4z M12,17.1
	c0,0,0,0.1,0,0.1c-0.1,0.1-0.3,0.2-0.5,0.1c0,0,0,0-0.1-0.1c0,0,0-0.1,0-0.1C11.6,17,11.8,17,12,17.1C12,17.1,12,17.1,12,17.1
	L12,17.1z M11.7,13.2c0.1,0,0.1,0.1,0.1,0.2c0,0,0,0-0.1,0.1C11.7,13.4,11.6,13.3,11.7,13.2C11.7,13.3,11.7,13.2,11.7,13.2z
	 M11.9,12.2l-0.1-0.2c0,0,0.1-0.1,0.1-0.1C12,11.9,12,12,12,12C12.1,12.1,12,12.1,11.9,12.2L11.9,12.2z M12,13.9L12,13.9
	c-0.1,0-0.1,0-0.1-0.1c0,0,0,0,0.1-0.1L12,13.9z M12.5,17.8L12.5,17.8v-0.1C12.5,17.7,12.5,17.7,12.5,17.8
	C12.5,17.7,12.5,17.8,12.5,17.8L12.5,17.8z M13.2,12.2L13.2,12.2v0.2c0,0-0.1,0-0.1-0.1C13.1,12.3,13.1,12.2,13.2,12.2L13.2,12.2z
	 M13.1,13.5C13.1,13.5,13.2,13.5,13.1,13.5c0,0.1,0,0.1,0,0.1C13.1,13.5,13.1,13.5,13.1,13.5C13.1,13.5,13.1,13.5,13.1,13.5
	L13.1,13.5z M13,13.6c0.1,0,0.1,0.1,0.1,0.1c0,0,0,0.1-0.1,0.1c0,0,0,0-0.1,0C12.9,13.8,12.9,13.7,13,13.6L13,13.6z M12.8,12.7
	C12.8,12.7,12.8,12.8,12.8,12.7c-0.1,0-0.1,0-0.2,0c0,0-0.1,0-0.1,0c0,0,0,0,0-0.1c0,0,0,0,0,0C12.6,12.7,12.7,12.7,12.8,12.7
	C12.8,12.7,12.8,12.7,12.8,12.7L12.8,12.7z M12.6,9.7l0.2,0.2c-0.1,0.1-0.3,0.1-0.4,0L12.6,9.7z M12.4,13.3c0.1,0,0.2,0,0.3,0
	c0,0,0,0,0,0.1c0,0,0,0,0,0c0,0-0.1,0-0.1,0c0,0-0.1,0-0.1,0C12.3,13.4,12.3,13.4,12.4,13.3C12.3,13.4,12.3,13.3,12.4,13.3z
	 M12.1,14.3C12.1,14.2,12.1,14.2,12.1,14.3c0-0.1,0-0.1,0-0.1V14.3L12.1,14.3z M12,10.8c0,0,0.1,0.1,0.1,0.1C12,11,12,11,11.9,11.1
	c0,0-0.1-0.1-0.1-0.1C11.9,10.9,11.9,10.9,12,10.8z M11,9.8c0,0,0.1,0.1,0.1,0.1L10.9,10l-0.1-0.1C10.9,9.9,11,9.8,11,9.8z M9.8,10
	c0.1,0.1,0.7,1.3,2,1.7c-0.8,0-1.6,0.1-2.4,0.4c-0.2,0.1-0.3,0.1-0.5,0.1c0.1-0.8,0.3-1.6,0.6-2.4C9.7,9.9,9.7,10,9.8,10L9.8,10z
	 M9.9,8.8C9.9,8.8,9.9,8.7,9.9,8.8c0-0.1,0-0.1,0-0.1C9.9,8.7,9.9,8.7,9.9,8.8C10,8.7,9.9,8.8,9.9,8.8z M14.8,7.3
	c0,0,0.1,0.1,0.1,0.1l-0.1,0.2c0,0-0.1-0.1-0.1-0.1C14.7,7.5,14.8,7.4,14.8,7.3z M14.5,7.9C14.5,8,14.6,8,14.5,7.9
	c0,0.1,0,0.2,0,0.2l-0.1-0.1C14.5,8,14.5,8,14.5,7.9z M13.8,7.5c0-0.1,0.2-0.1,0.3,0c0,0,0,0.1,0,0.1c0,0-0.1,0-0.1,0.1
	C13.9,7.6,13.8,7.6,13.8,7.5z M8.8,8c0-0.1-0.1-0.2-0.1-0.2l0.1-0.1c0,0.1,0.1,0.2,0.1,0.2C8.9,7.9,8.8,8,8.8,8L8.8,8z M8.8,5.9
	L8.8,5.9l0.1,0C8.9,5.9,8.9,5.9,8.8,5.9C8.9,5.9,8.8,5.9,8.8,5.9L8.8,5.9z M9.1,8.6C9.1,8.6,9,8.6,8.9,8.5C9,8.5,9,8.4,9,8.4
	l0.2,0.1C9.2,8.6,9.2,8.6,9.1,8.6L9.1,8.6z M9.4,6.8C9.4,6.8,9.4,6.8,9.4,6.8c0-0.1,0-0.1,0-0.1V6.8L9.4,6.8z M11.8,4.4
	c0.1,0,0.1-0.1,0.2-0.1c0,0,0.1,0.1,0.1,0.1c-0.1,0-0.1,0.1-0.2,0.1C11.9,4.5,11.8,4.4,11.8,4.4L11.8,4.4z M12.1,4.9
	c0,0,0-0.1-0.1-0.1c0,0,0,0,0.1-0.1C12.1,4.8,12.1,4.8,12.1,4.9C12.1,4.9,12.1,4.9,12.1,4.9L12.1,4.9z M12.5,5.4
	c0,0-0.1-0.1-0.1-0.1c0,0,0.1-0.1,0.1-0.1C12.5,5.2,12.5,5.3,12.5,5.4C12.5,5.3,12.5,5.4,12.5,5.4L12.5,5.4z M12.4,4.8
	C12.4,4.8,12.4,4.8,12.4,4.8c0.1,0,0.1,0,0.1,0.1c0,0,0,0-0.1,0.1C12.4,4.9,12.4,4.9,12.4,4.8L12.4,4.8z M14,3.9
	c0.1-0.1,0.2-0.1,0.2,0c0,0,0,0,0,0C14.2,4,14.1,4,14,3.9C14,3.9,14,3.9,14,3.9L14,3.9z M14.4,3.7C14.4,3.7,14.4,3.7,14.4,3.7
	c-0.1,0-0.1-0.1-0.1-0.2c0,0,0,0,0,0c0,0,0,0,0,0C14.5,3.6,14.5,3.6,14.4,3.7C14.5,3.7,14.5,3.7,14.4,3.7L14.4,3.7z M14.9,3.2
	C14.8,3.2,14.8,3.3,14.9,3.2C14.7,3.2,14.8,3.2,14.9,3.2C14.8,3.2,14.9,3.2,14.9,3.2C14.9,3.2,14.9,3.2,14.9,3.2L14.9,3.2z
	 M14.9,3.2C14.9,3.2,14.9,3.1,14.9,3.2c0-0.1,0-0.1,0.1-0.1c0,0,0,0,0,0C15,3.1,15,3.2,14.9,3.2C14.9,3.2,14.9,3.2,14.9,3.2
	L14.9,3.2z M15.1,3.8L15,3.7c0.1,0,0.1-0.1,0.2-0.1c0,0,0.1,0.1,0.1,0.1L15.1,3.8z M15.3,3.4c0-0.1,0-0.1-0.1-0.2c0,0,0-0.1,0.1-0.1
	C15.4,3.2,15.4,3.3,15.3,3.4C15.4,3.4,15.4,3.4,15.3,3.4L15.3,3.4z M15.7,3.3C15.7,3.3,15.7,3.2,15.7,3.3c0-0.1,0-0.1,0-0.1V3.3
	C15.7,3.3,15.7,3.3,15.7,3.3L15.7,3.3z M16.6,3.8c0,0-0.1,0.1-0.2,0.1c-0.1,0-0.2-0.1-0.2-0.2c0-0.2-0.1-0.4,0.1-0.6
	c0.1,0.1,0.2,0.2,0.3,0.3C16.7,3.6,16.7,3.7,16.6,3.8L16.6,3.8z M16.9,3.2C16.9,3.1,16.8,3.1,16.9,3.2L16.9,3.2L16.9,3.2
	C16.9,3.1,16.9,3.2,16.9,3.2L16.9,3.2z M17.8,3.8c0,0,0,0.1,0,0.1c-0.1,0.1-0.1,0.1-0.2,0.2c0,0-0.1-0.1-0.1-0.1
	c0-0.1,0.1-0.1,0.1-0.2C17.8,3.8,17.8,3.8,17.8,3.8z M18.2,1.5C18.2,1.5,18.2,1.5,18.2,1.5c0,0.1,0,0.1,0,0.1V1.5L18.2,1.5z
	 M15.5,0.3c0.2,0,0.3,0,0.5,0c0,0.1,0,0.1,0,0.1c-0.1,0.1-0.1,0.1-0.5,0C15.5,0.5,15.5,0.4,15.5,0.3z M13.5,1.7
	C13.5,1.7,13.6,1.7,13.5,1.7c0,0.1,0,0.1,0,0.1V1.7L13.5,1.7z M13.2,1.3c0-0.1,0.2-0.1,0.2,0c0,0,0,0,0,0c0,0-0.1,0-0.1,0
	C13.3,1.4,13.2,1.3,13.2,1.3z M13,1.1c0,0,0.1,0.1,0.1,0.1l-0.2,0.1l-0.1-0.1C12.8,1.2,12.9,1.1,13,1.1z M13,3.1
	c0,0-0.1,0.1-0.1,0.1c0,0,0-0.1-0.1-0.1C12.8,3,12.9,3,13,3.1C12.9,3,12.9,3,13,3.1z M12.7,4.3c0.3-1.1,0.9-2.5,1.9-3.2
	C14.7,1,14.8,0.9,15,0.8l0,0l0,0c0.4-0.2,0.8-0.3,1.2-0.3c0.8,0,1.5,0.3,1.9,1c-0.1,0-0.3,0.1-0.4,0.1l0,0c-1.9,0.6-3.7,1.7-5.1,3.1
	c0-0.1,0.1-0.2,0.1-0.4l-0.1,0.1c0,0-0.1-0.1-0.1-0.1C12.5,4.3,12.6,4.3,12.7,4.3C12.7,4.2,12.7,4.3,12.7,4.3z M12.4,2.1L12.4,2.1
	v0.2c0,0-0.1,0-0.1-0.1C12.4,2.2,12.4,2.2,12.4,2.1z M12.3,3.2c0.2,0.1,0.2,0.4,0,0.6c0,0-0.1,0-0.1,0c0-0.1-0.1-0.2-0.1-0.3
	C12.1,3.3,12.1,3.2,12.3,3.2z M12,2.7l0.1,0.2c0,0-0.1,0.1-0.1,0.1C12,2.9,12,2.8,12,2.7C12,2.7,12,2.7,12,2.7z M11.8,1.5
	C11.9,1.5,11.9,1.5,11.8,1.5c0,0.1,0,0.1,0,0.1V1.5L11.8,1.5z M11.6,2c0-0.1,0-0.2,0-0.2c0,0,0,0,0.1,0c0.1,0,0.1,0.2,0,0.3
	C11.8,2.1,11.7,2.1,11.6,2C11.6,2.1,11.6,2.1,11.6,2z M11.4,2.1c0.1,0,0.2,0,0.2,0c0,0,0,0.1,0,0.1c-0.1,0.1-0.2,0.1-0.3,0.1
	c0,0-0.1,0-0.1-0.1C11.3,2.2,11.3,2.1,11.4,2.1L11.4,2.1z M10.3,1.4l0.1,0.1l-0.1,0.1C10.3,1.5,10.2,1.5,10.3,1.4
	C10.2,1.5,10.3,1.4,10.3,1.4z M9.5,2.4c0.6-0.1,1.2,0.5,1.4,1.2C10.9,3.7,11,3.8,11,4c0.2,0,0.5,0,0.7,0.2c0,0,0.1,0,0.1-0.1
	c0,0,0,0,0.1,0.1c0,0-0.1,0-0.1,0.1c0,0,0,0,0,0c-0.2,0.1-0.4,0-0.6,0.1c0,0-0.1-0.1-0.1-0.1C11,4.8,10.9,5.5,10.5,6
	c-0.1-0.2-0.3-0.6-0.3-0.8C10,4.8,9.7,3.7,9.7,3.7c0,0.5,0,1.1,0.1,1.6c0.1,0.3,0.2,0.6,0.4,0.9C9.5,6,8.6,5.2,8.5,4.3
	C8.5,3.4,8.9,2.5,9.5,2.4z M0.8,20.3C0.8,20.3,0.9,20.3,0.8,20.3c0,0.1,0,0.1,0,0.2l-0.1-0.1L0.8,20.3z M2.9,22.6
	C2.9,22.6,2.9,22.6,2.9,22.6c0-0.1,0-0.1,0-0.1V22.6L2.9,22.6z M4.6,22.2C4.6,22.2,4.6,22.2,4.6,22.2L4.6,22.2L4.6,22.2
	C4.7,22.2,4.6,22.2,4.6,22.2z M4.9,23.3c0,0,0-0.1-0.1-0.1c0,0,0,0,0.1-0.1C4.9,23.2,5,23.2,4.9,23.3C5,23.3,4.9,23.3,4.9,23.3z
	 M5.1,21.5l0.2,0.2c-0.2,0-0.4,0-0.6,0c-0.2,0.1-0.4,0.2-0.6,0.3l0,0c0,0,0,0.1-0.1,0.1c0,0-0.1,0-0.1,0c-0.3,0.1-0.7,0.2-1,0.3
	c-0.1,0-0.2,0-0.3,0c-1,0-1.8-0.6-1.9-1.1c-0.1-0.3,0-0.7,0.2-1c0.4-0.5,1-0.8,1.6-0.8c0.2,0,0.5,0,0.7,0c0.9,0,1.7,0.2,2.4,0.8
	c-0.3,0-0.6,0.1-0.8,0.2C5,20.6,5,20.6,5,20.7c0,0,0,0,0,0c0.3,0,0.5-0.1,0.8-0.1C5.6,21,5.4,21.3,5.1,21.5L5.1,21.5z M2.1,18.7
	C2.1,18.6,2.2,18.6,2.1,18.7L2.1,18.7L2.1,18.7C2.2,18.7,2.1,18.7,2.1,18.7z M3.3,18.3C3.3,18.3,3.3,18.3,3.3,18.3L3.3,18.3
	L3.3,18.3C3.3,18.4,3.3,18.3,3.3,18.3z M3.8,18.3c-0.1,0.1-0.2,0.1-0.2,0c0,0,0,0,0,0C3.6,18.2,3.7,18.2,3.8,18.3
	C3.8,18.3,3.8,18.3,3.8,18.3z M3.6,17.9c0,0,0.1,0,0.1-0.1c0,0,0,0,0.1,0.1C3.7,17.9,3.7,18,3.6,17.9C3.6,18,3.6,17.9,3.6,17.9z
	 M4.5,17.6l0.1-0.1c0,0,0.1,0,0.1,0.1C4.6,17.6,4.6,17.6,4.5,17.6L4.5,17.6z M4.7,18.2C4.7,18.2,4.7,18.2,4.7,18.2l0.1,0.1l-0.1,0.1
	C4.7,18.3,4.7,18.3,4.7,18.2L4.7,18.2z M5,18.9L5,18.9C5,18.8,5,18.9,5,18.9C5.1,18.9,5,18.9,5,18.9L5,18.9z M5.4,21.9
	C5.4,21.9,5.4,22,5.4,21.9c0,0.1,0,0.1,0,0.1C5.4,22,5.4,22,5.4,21.9C5.4,21.9,5.4,21.9,5.4,21.9L5.4,21.9z M5.4,23.4
	C5.4,23.5,5.4,23.4,5.4,23.4c0-0.1,0-0.1,0.1-0.1c0,0,0,0,0.1,0.1C5.5,23.4,5.5,23.4,5.4,23.4L5.4,23.4z M6.5,24
	C6.5,24,6.5,23.9,6.5,24l0.1-0.1l0.1,0.1C6.6,23.9,6.5,24,6.5,24L6.5,24z M7.3,24.1C7.2,24.1,7.2,24.2,7.3,24.1
	c-0.1,0.1-0.1,0-0.1,0c0,0,0,0,0,0c0,0-0.1-0.1,0.1-0.1C7.2,24,7.2,24,7.3,24.1C7.3,24.1,7.3,24.1,7.3,24.1L7.3,24.1z M7.2,23.4
	C7.2,23.4,7.2,23.4,7.2,23.4L7.2,23.4L7.2,23.4C7.2,23.5,7.2,23.5,7.2,23.4L7.2,23.4z M7.6,24.5c-0.1-0.1,0-0.1,0-0.2
	c0,0,0.1,0,0.1,0v0.1C7.7,24.5,7.6,24.5,7.6,24.5L7.6,24.5z M7.5,23.1c0-0.1,0.1-0.2,0.3-0.1c0,0,0.1,0.1,0.1,0.1
	c-0.1,0.1-0.2,0.2-0.3,0.3C7.6,23.2,7.5,23.2,7.5,23.1L7.5,23.1z M7.8,24.4C7.7,24.4,7.7,24.4,7.8,24.4C7.7,24.3,7.7,24.3,7.8,24.4
	c0-0.1,0-0.1,0-0.2c0,0,0.1,0,0.1,0.1C7.8,24.3,7.8,24.3,7.8,24.4L7.8,24.4z M8.2,24.6L8.2,24.6C8.2,24.5,8.3,24.6,8.2,24.6
	C8.3,24.6,8.2,24.6,8.2,24.6L8.2,24.6z M8.3,24.7C8.3,24.7,8.3,24.7,8.3,24.7c0-0.1,0-0.1,0-0.2l0.1,0.1L8.3,24.7z M8.7,23.1
	c0.1,0,0.1-0.1,0.2-0.2c0,0.1,0,0.2,0.1,0.2c0,0.1,0,0.1-0.1,0.1c0,0,0,0,0,0C8.7,23.3,8.7,23.3,8.7,23.1
	C8.5,23.1,8.6,23.1,8.7,23.1L8.7,23.1z M9,25.7L9,25.7v-0.1C9,25.6,9,25.6,9,25.7C9,25.6,9,25.7,9,25.7L9,25.7z M10.5,24.5
	c0.1,0.1,0.1,0.2,0.1,0.3c0,0,0,0-0.1,0.1C10.4,24.8,10.3,24.7,10.5,24.5C10.4,24.6,10.4,24.6,10.5,24.5L10.5,24.5z M10.1,23.7
	L10.1,23.7v0.2c0,0-0.1,0-0.1-0.1C10.1,23.7,10.1,23.7,10.1,23.7z M9.8,24.5C9.8,24.5,9.9,24.5,9.8,24.5c0,0.1,0,0.1-0.1,0.2
	c0,0,0-0.1-0.1-0.1L9.8,24.5z M9.6,23.3L9.6,23.3v0.2c0,0-0.1,0-0.1-0.1C9.5,23.4,9.6,23.3,9.6,23.3z M9.5,24.9
	c0.1,0.1,0.1,0.2,0.1,0.3c0,0,0,0.1-0.1,0.1c-0.1,0-0.1,0-0.2,0L9.5,24.9z M9.5,25.3c0.1,0,0.1,0,0.1,0.1c0,0,0,0,0,0
	c0,0.1-0.1,0.1-0.2,0.1c-0.1,0-0.1,0-0.1-0.1C9.3,25.4,9.4,25.3,9.5,25.3L9.5,25.3z M9.1,24.1C9.1,24.1,9.1,24.2,9.1,24.1
	c-0.1,0.1-0.2,0.1-0.2,0.1c-0.1,0-0.1,0-0.2,0c0,0-0.1-0.1-0.1-0.1c0,0,0-0.1,0.1-0.1c0.1,0,0.2,0,0.3,0C9.1,24,9.1,24.1,9.1,24.1
	L9.1,24.1z M8.6,22c0,0,0.1-0.1,0.1-0.1C8.8,22,8.9,22.1,9,22.2c-0.1,0-0.2,0.1-0.2,0.1C8.6,22.2,8.5,22.1,8.6,22L8.6,22z M8.6,23.1
	C8.6,23.1,8.6,23.1,8.6,23.1C8.6,23.1,8.5,23.1,8.6,23.1c-0.1,0-0.2,0-0.2,0C8.5,22.9,8.5,23,8.6,23.1L8.6,23.1z M8.4,24.1
	c0,0,0,0.1,0,0.1c0,0,0,0.1,0,0.1c0,0,0,0,0,0c0,0-0.1,0-0.1,0c0-0.1,0-0.1,0-0.2C8.3,24.1,8.3,24.1,8.4,24.1
	C8.4,24.1,8.4,24.1,8.4,24.1L8.4,24.1z M8.1,22.1c0.1-0.1,0.2-0.1,0.3,0c0,0,0,0,0,0c0,0,0,0,0,0.1C8.3,22.3,8.2,22.3,8.1,22.1
	C8.1,22.2,8.1,22.2,8.1,22.1C8.1,22.2,8.1,22.1,8.1,22.1L8.1,22.1z M8.1,23.5c0.1,0.1,0.1,0.2,0.1,0.3c0,0,0,0-0.1,0.1
	C8,23.8,8,23.6,8.1,23.5C8.1,23.5,8.1,23.5,8.1,23.5L8.1,23.5z M7.5,20.5L7.5,20.5c0,0.1,0,0.1-0.1,0.2c0,0,0-0.1-0.1-0.1L7.5,20.5z
	 M7.2,21c-0.1,0.1-0.2,0.3-0.3,0.4c-0.1,0.1-0.1,0.2-0.1,0.3c0,0,0.1,0.1,0.1,0.1c0.1-0.1,0.1-0.2,0.2-0.4c0-0.1,0.1-0.1,0.2-0.2
	c-0.1,0-0.1,0-0.2,0c0.1-0.1,0.2-0.1,0.3-0.2c0.1-0.1,0.3,0,0.4,0c0,0,0,0,0,0c0,0-0.1,0.1-0.1,0.1c0,0-0.1,0-0.1,0
	c0,0.2,0,0.4,0,0.6c0.1,0,0.1,0,0.2,0.1c0,0,0,0.1,0,0.2c0,0,0,0-0.1,0.1c-0.1-0.1-0.1-0.1-0.2-0.2c0,0.2-0.1,0.5-0.2,0.7
	c-0.2,0.3-0.4,0.5-0.7,0.6c0,0,0,0.1,0.1,0.1c0,0,0,0,0,0c0,0,0,0,0,0c0,0,0,0,0,0l0,0c0.1,0.1,0,0.3,0.1,0.5h0.1c0,0,0,0,0,0
	c0,0,0.1,0,0.1,0c0,0,0,0,0,0c0,0,0.1-0.1,0.1-0.1c0,0,0,0,0-0.1c0,0,0,0,0,0c0,0,0,0,0,0.1c0,0,0,0,0,0c0.1,0.1,0.1,0.1,0,0.2
	c0,0,0,0,0,0c0,0.1,0,0.1-0.1,0.1C7,24,7,24,7,24c0,0.1,0,0.2,0,0.3c0,0-0.1,0.1-0.1,0.1c0,0-0.1-0.1-0.1-0.1c0-0.1,0-0.2,0-0.4
	c-0.3-0.2-0.4-0.4-0.4-0.6c-0.1,0-0.3,0-0.4-0.1c-0.3-0.3-0.3-0.8-0.2-1.2c0,0-0.1,0-0.1,0c0.1-0.1,0.2-0.2,0.2-0.3c0,0,0,0,0,0
	c0,0-0.1,0-0.1,0c0,0,0,0,0-0.1c0,0,0,0,0,0c0.1,0,0.2,0,0.3,0c0,0,0,0,0,0C6.4,21.3,6.8,21,7.2,21z M6.9,20.1c0,0,0-0.1-0.1-0.1
	c0,0,0,0,0.1-0.1C6.9,20,6.9,20,6.9,20.1C6.9,20.1,6.9,20.1,6.9,20.1L6.9,20.1z M7.3,19.5c-0.1-0.2-0.4-0.5-0.5-0.6
	c-0.2-0.2-0.4-0.3-0.6-0.4c0,0,0.6,0.7,0.8,0.8c0.1,0.1,0.1,0.2,0,0.3c-0.5,0-0.9-0.1-1.3-0.4c-0.3-0.2-0.5-0.5-0.5-0.9
	c0,0-0.1,0-0.1-0.1c0,0,0,0,0,0c0,0,0-0.1,0.1-0.1c0-0.1,0.1-0.2,0.1-0.3c0.3-0.3,0.9-0.3,1.5,0.1C7.3,18.4,7.4,19.3,7.3,19.5
	L7.3,19.5z M6.9,14.1L6.9,14.1v0.1C6.9,14.2,6.9,14.2,6.9,14.1C6.9,14.2,6.9,14.2,6.9,14.1z M6.9,13.4C6.9,13.4,6.8,13.4,6.9,13.4
	c0-0.1,0-0.1,0-0.2L7,13.3L6.9,13.4z M7.1,12.6c0,0,0.1,0,0.1,0c0.2,0.1,0.2,0.4,0,0.6c0,0,0,0,0,0c0,0-0.1,0-0.1,0
	C6.9,13,6.9,12.7,7.1,12.6C7.1,12.6,7.1,12.6,7.1,12.6z M7.1,17.1L7.1,17.1c0.1,0,0.1,0,0.1,0C7.3,17.1,7.2,17.1,7.1,17.1
	C7.2,17.1,7.2,17.1,7.1,17.1z M7.9,2.7l0.1,0.1c0,0,0,0.1-0.1,0.1C8,2.8,7.9,2.8,7.9,2.7L7.9,2.7z M8,3.9C8,3.9,8,4,8,3.9
	c-0.1,0-0.1,0-0.1,0C7.9,3.9,7.9,3.9,8,3.9L8,3.9z M7,3.9c0.1-0.1,0.2-0.1,0.2-0.1c0.1,0,0.1,0.1,0.1,0.2c0,0.1-0.1,0.2-0.2,0.1
	c-0.1,0-0.2,0-0.4-0.1C6.9,4.1,6.9,4,7,3.9z M6.6,3.7L6.6,3.7C6.6,3.7,6.6,3.7,6.6,3.7C6.5,3.7,6.5,3.7,6.6,3.7L6.6,3.7z M6.2,3.9
	C6.2,3.9,6.2,3.9,6.2,3.9L6.1,4L6.1,4C6.1,3.9,6.2,3.9,6.2,3.9z M4.6,5.3l0.1,0.1L4.6,5.5C4.5,5.4,4.5,5.4,4.6,5.3
	C4.5,5.3,4.5,5.3,4.6,5.3z M4.2,5.3l0.1,0.1L4.2,5.5C4.2,5.4,4.2,5.4,4.2,5.3C4.1,5.3,4.2,5.3,4.2,5.3L4.2,5.3z M4.3,6
	c0.2-0.2,0.6-0.4,0.9-0.4c-0.1,0-0.1-0.2,0-0.2c0.1,0,0.1,0,0.1,0.1c0,0,0,0,0,0.1C6,5.4,6.7,5.6,7.2,6c1.1,0.8,1.2,2.2,1.2,3
	C8.1,8.8,7.8,8.6,7.5,8.4c0,0,0,0,0,0c0,0,0,0,0,0c0,0-0.1,0-0.1,0.1c-0.1,0-0.2,0-0.1-0.1c0-0.1,0.1-0.1,0.2-0.1
	C6.8,7.8,5.8,6.9,5.8,6.9c0.3,0.5,0.6,0.9,0.9,1.3l0.1,0c0,0,0,0,0,0C6.9,8.4,7,8.5,7.2,8.6c0.3,0.2,0.7,0.5,1,0.7
	C7.4,9.5,6,9.5,4.9,8.6C4.1,7.9,3.9,6.5,4.3,6L4.3,6z M6.2,10L6.2,10c-0.1,0-0.1,0-0.1-0.1c0,0,0,0,0.1-0.1L6.2,10z M5.5,9.3
	C5.5,9.3,5.5,9.3,5.5,9.3c-0.1,0-0.1,0-0.1-0.1c0,0,0,0,0.1-0.1C5.5,9.2,5.5,9.3,5.5,9.3L5.5,9.3z M3.8,8.2C3.8,8.2,3.8,8.2,3.8,8.2
	c0.2,0.1,0.2,0.3,0.1,0.4c0,0,0,0-0.1,0C3.6,8.5,3.6,8.3,3.8,8.2L3.8,8.2z M3.5,6.9L3.6,7c0,0,0,0.1-0.1,0.1C3.5,7,3.4,7,3.5,6.9
	L3.5,6.9z M3.1,9.1c0,0,0.1,0,0.1,0c0,0,0,0,0,0c0,0.1-0.2,0.1-0.2,0C3,9.1,3.1,9.1,3.1,9.1z M2.1,10.7c0.3-1.1,1.5-1.5,2.7-1.2
	c1,0.2,1.8,0.8,2.3,1.7c0.1,0,0.3,0,0.4,0c0,0,0.1,0.1,0.1,0.1c-0.1,0.1-0.2,0.2-0.3,0.3c0,0.1,0.1,0.2,0.1,0.2
	c-0.1,0-0.3-0.1-0.4-0.1c0,0.1-0.1,0.2-0.1,0.2c-0.1-0.1-0.1-0.2-0.1-0.3c-0.1,0-0.3-0.1-0.4-0.1c-0.6-0.1-1.1-0.1-1.7-0.1
	c0,0,1,0.2,1.7,0.4c0.3,0.1,0.7,0.2,1,0.3c-0.6,0.7-2.1,1.1-3.6,0.8c-0.5-0.1-1-0.3-1.4-0.8l0,0c0,0,0,0,0,0c0,0,0,0,0-0.1
	C2.1,11.7,2,11.2,2.1,10.7z M2.1,13.7c0,0.1,0,0.1,0.1,0.2c0,0,0,0.1-0.1,0.1C2.1,13.9,2.1,13.8,2.1,13.7
	C2.1,13.7,2.1,13.7,2.1,13.7z M1.9,13c0,0,0.1,0,0.1,0.1c0,0,0,0.1-0.1,0.1C1.9,13.1,1.9,13.1,1.9,13C1.8,13,1.9,13,1.9,13L1.9,13z
	 M1.7,12.6C1.7,12.6,1.7,12.6,1.7,12.6c0.1-0.1,0.2-0.1,0.2,0c0,0,0,0,0,0C1.9,12.7,1.8,12.7,1.7,12.6L1.7,12.6z M2,10
	c-0.1,0.1-0.2,0.1-0.2,0c0,0,0,0,0,0C1.8,9.9,1.9,9.9,2,10C2,10,2,10,2,10L2,10z M1.7,10.3C1.7,10.3,1.7,10.3,1.7,10.3
	c0,0.1,0,0.1,0,0.1C1.6,10.4,1.6,10.3,1.7,10.3C1.6,10.3,1.6,10.3,1.7,10.3L1.7,10.3z M1.7,11.7L1.7,11.7v0.1
	C1.6,11.8,1.6,11.8,1.7,11.7C1.6,11.8,1.6,11.8,1.7,11.7L1.7,11.7z M1.5,14.6c0.1,0,0.1,0.1,0.1,0.2c0,0,0,0-0.1,0.1
	C1.5,14.8,1.4,14.7,1.5,14.6C1.5,14.6,1.5,14.6,1.5,14.6L1.5,14.6z M0.9,12.1L0.9,12.1C0.8,12,0.8,12,0.9,12.1
	C0.9,12,0.9,12,0.9,12.1L0.9,12.1z M1.5,16.9C1.5,16.9,1.5,16.8,1.5,16.9c0-0.1,0-0.1,0-0.1C1.5,16.8,1.6,16.8,1.5,16.9
	C1.6,16.9,1.5,16.9,1.5,16.9z M1.6,17.2c-0.1,0-0.1-0.1,0-0.2c0,0,0,0,0,0C1.7,17,1.7,17.1,1.6,17.2C1.7,17.2,1.7,17.2,1.6,17.2
	L1.6,17.2z M1.4,16.1L1.4,16.1c0-0.1,0-0.2-0.1-0.4c0-1.1,1.1-1.9,2.4-1.9c1.6,0,2.9,0.5,3.5,1.5c-0.3,0-0.6,0-1,0
	c-0.9,0-1.7,0.1-2.6,0.4c0.7,0,1.9-0.1,2.5-0.1c0.3,0,0.7,0,1,0C6.9,16.3,6,17,4.9,17.3l0,0c0,0,0,0,0,0c-0.4,0.1-0.8,0.2-1.1,0.2
	c-0.5,0-0.9-0.1-1.3-0.3c0,0,0,0.1,0.1,0.1c0,0-0.1,0.1-0.1,0.1c0-0.1-0.1-0.2-0.1-0.2c0,0,0,0,0.1-0.1C1.9,16.8,1.6,16.5,1.4,16.1z
	"/>
<path d="M19.7,4.3C19.7,4.3,19.7,4.3,19.7,4.3c-0.1,0.1-0.2,0.3-0.2,0.3c0,0-0.1,0-0.1,0c0,0,0,0,0,0c-0.1,0.2,0,0.4,0.2,0.4
	c0.2,0,0.2-0.2,0.3-0.3S20,4.7,20,4.9c0,0.2-0.1,0.3-0.3,0.3c-0.2,0.1-0.2,0.1-0.3,0.2c0,0.1,0.1,0.2,0.2,0.3c0-0.1,0-0.2,0-0.2
	c0-0.1,0.1-0.1,0.2-0.2c0,0.1,0.1,0.1,0.1,0.2c0,0,0.1,0,0.1,0c0,0,0,0,0,0l-0.1,0l0,0c0,0,0,0.1,0,0.1c0,0,0,0.1,0,0.1
	c0.1,0,0.2-0.1,0.3-0.1c0.2-0.1,0.3-0.2,0.5-0.3c0,0,0,0,0,0c0,0,0,0,0,0c0,0,0,0,0,0c0,0,0.1,0,0.1,0c0,0,0,0,0,0
	c0-0.2-0.1-0.3-0.2-0.4c-0.2-0.1-0.1-0.4-0.2-0.6c-0.1-0.2-0.1-0.5-0.3-0.4C19.9,3.8,19.8,4.2,19.7,4.3z M20.3,5.3L20.3,5.3v0.1
	C20.2,5.5,20.2,5.4,20.3,5.3C20.2,5.4,20.2,5.4,20.3,5.3z"/>
<path d="M4.7,20.6c0,0,0-0.1,0.1-0.1c-0.4,0.1-0.8,0.2-1.2,0.4c0.3,0,0.7-0.1,1.2-0.1C4.8,20.7,4.7,20.7,4.7,20.6z"/>
<path d="M6.6,22.2C6.6,22.2,6.6,22.2,6.6,22.2C6.6,22.2,6.7,22.2,6.6,22.2c0.1-0.1,0-0.1,0-0.1C6.6,22.1,6.6,22.2,6.6,22.2
	C6.6,22.2,6.6,22.2,6.6,22.2z"/>
</svg>
